<svg width="32" height="35" viewBox="0 0 32 35" fill="none" xmlns="http://www.w3.org/2000/svg">
<g clip-path="url(#clip0_72_24)">
<path d="M30.9298 26.25C31.1745 25.8272 31.3265 25.3509 31.3265 24.9232V10.0767C31.3265 9.64897 31.1747 9.17278 30.9299 8.75006L15.7347 17.5L30.9298 26.25Z" fill="#00599C"/>
<path d="M17.085 34.6791L29.9763 27.2559C30.3476 27.042 30.6851 26.6728 30.9298 26.2499L15.7347 17.5L0.539581 26.2501C0.784261 26.6728 1.12188 27.0421 1.49313 27.2559L14.3844 34.6791C15.127 35.1068 16.3424 35.1068 17.085 34.6791Z" fill="#004482"/>
<path d="M30.9299 8.74995C30.6851 8.32712 30.3475 7.95786 29.9763 7.74401L17.085 0.320778C16.3424 -0.106926 15.127 -0.106926 14.3844 0.320778L1.49313 7.74401C0.750425 8.17161 0.142853 9.22136 0.142853 10.0767V24.9232C0.142853 25.3509 0.294797 25.8272 0.539578 26.2499L15.7347 17.5L30.9299 8.74995Z" fill="#659AD2"/>
<path d="M15.7347 27.8673C10.0031 27.8673 5.34013 23.2166 5.34013 17.5C5.34013 11.7834 10.0031 7.13263 15.7347 7.13263C19.4331 7.13263 22.8824 9.11767 24.7363 12.3131L20.2378 14.9094C19.3099 13.3099 17.5843 12.3163 15.7347 12.3163C12.8689 12.3163 10.5374 14.6416 10.5374 17.5C10.5374 20.3582 12.8689 22.6837 15.7347 22.6837C17.5845 22.6837 19.3101 21.69 20.2381 20.0903L24.7366 22.6865C22.8827 25.8822 19.4333 27.8673 15.7347 27.8673Z" fill="white"/>
<path d="M26.1292 16.924H24.9742V15.7721H23.8194V16.924H22.6644V18.0759H23.8194V19.2279H24.9742V18.0759H26.1292V16.924Z" fill="white"/>
<path d="M30.4603 16.924H29.3053V15.7721H28.1505V16.924H26.9955V18.0759H28.1505V19.2279H29.3053V18.0759H30.4603V16.924Z" fill="white"/>
</g>
<defs>
<clipPath id="clip0_72_24">
<rect width="31.1837" height="35" fill="white" transform="translate(0.142853)"/>
</clipPath>
</defs>
</svg>
