<svg width="104" height="121" viewBox="0 0 104 121" fill="none" xmlns="http://www.w3.org/2000/svg">
<g clip-path="url(#clip0_100_133)">
<path d="M103.896 75.8248C103.895 74.7516 103.645 73.8032 103.139 72.9893C102.642 72.1889 101.898 71.5181 100.9 70.9877C92.6591 66.6284 84.4107 62.2824 76.1729 57.9186C73.952 56.7422 71.7987 56.7851 69.5944 57.9783C66.3144 59.7531 49.8929 68.3849 44.9995 70.9853C42.9842 72.0556 42.0036 73.6937 42.0031 75.8228C42 84.5897 42.0031 93.3564 42 102.123C42.0005 103.173 42.24 104.103 42.7237 104.905C43.2209 105.729 43.9755 106.419 44.9968 106.961C49.8905 109.561 66.3142 118.193 69.5934 119.968C71.7987 121.162 73.952 121.204 76.1736 120.027C84.4116 115.663 92.6605 111.318 100.902 106.958C101.923 106.416 102.678 105.726 103.175 104.903C103.658 104.101 103.898 103.171 103.899 102.121C103.899 102.121 103.899 84.5919 103.896 75.8248Z" fill="#5C8DBC"/>
<path d="M73.0441 88.8877L42.7236 104.905C43.2208 105.729 43.9755 106.419 44.9968 106.961C49.8904 109.561 66.3141 118.193 69.5934 119.968C71.7987 121.162 73.952 121.204 76.1736 120.027C84.4116 115.663 92.6605 111.318 100.902 106.958C101.923 106.416 102.678 105.726 103.175 104.903L73.0441 88.8877Z" fill="#1A4674"/>
<path d="M64.0635 93.6321C65.8279 96.458 69.1446 98.3641 72.9494 98.3641C76.7777 98.3641 80.1133 96.4338 81.8687 93.5777L73.0441 88.8877L64.0635 93.6321Z" fill="#1A4674"/>
<path d="M103.896 75.8248C103.895 74.7516 103.645 73.8032 103.139 72.9893L73.0441 88.8877L103.175 104.903C103.658 104.101 103.898 103.171 103.899 102.121C103.899 102.121 103.899 84.5919 103.896 75.8248Z" fill="#1B598E"/>
<path d="M102.239 90.0325H99.8843V92.1931H97.5292V90.0325H95.1749V87.8725H97.5292V85.7122H99.8843V87.8725H102.239V90.0325ZM93.6472 90.0325H91.2929V92.1931H88.9383V90.0325H86.5838V87.8725H88.9383V85.7122H91.2929V87.8725H93.6472V90.0325Z" fill="white"/>
<path d="M81.8687 93.5777C80.1133 96.4338 76.7777 98.3641 72.9494 98.3641C69.1446 98.3641 65.8279 96.4581 64.0635 93.6321C63.1772 92.2141 62.7118 90.6076 62.7136 88.973C62.7136 83.7867 67.2965 79.5822 72.9494 79.5822C76.7297 79.5822 80.029 81.4644 81.8021 84.2615L90.7487 79.5349C87.1927 73.903 80.5536 70.114 72.9494 70.114C61.5966 70.114 52.3937 78.5576 52.3937 88.973C52.3937 92.39 53.3845 95.5944 55.1162 98.3583C58.6632 104.02 65.3212 107.832 72.9494 107.832C80.5916 107.832 87.26 104.005 90.802 98.3263L81.8687 93.5777Z" fill="white"/>
</g>
<g clip-path="url(#clip1_100_133)">
<path fill-rule="evenodd" clip-rule="evenodd" d="M30.1524 0.436238C31.2959 -0.144333 32.7039 -0.144333 33.8458 0.436238C39.4963 3.30557 56.5001 11.9425 62.1523 14.8118C63.2959 15.3909 63.9999 16.4637 63.9999 17.6248C63.9999 23.3635 63.9999 40.6358 63.9999 46.3745C63.9999 47.5356 63.2959 48.6084 62.1523 49.189C56.5018 52.0583 39.498 60.6952 33.8458 63.5646C32.7022 64.1451 31.2942 64.1451 30.1524 63.5646C24.5018 60.6952 7.49809 52.0583 1.84589 49.189C0.703998 48.6084 0 47.5372 0 46.376C0 40.6373 0 23.365 0 17.6263C0 16.4652 0.703998 15.3924 1.84757 14.8118C7.4964 11.9425 24.5035 3.30557 30.1524 0.436238Z" fill="#004482"/>
<path fill-rule="evenodd" clip-rule="evenodd" d="M0.511999 47.8541C0.0639998 47.3116 0 46.7966 0 46.1033C0 40.3981 0 23.2248 0 17.5181C0 16.3631 0.702314 15.2964 1.84252 14.7204C7.47282 11.8678 24.4193 3.28119 30.0496 0.427096C31.1898 -0.150428 32.7342 -0.138237 33.8745 0.439286C39.5048 3.29186 56.394 11.8054 62.0243 14.6579C62.479 14.8896 62.826 15.1684 63.1359 15.5357L0.511999 47.8541Z" fill="#659AD2"/>
<path fill-rule="evenodd" clip-rule="evenodd" d="M31.9999 10.6671C45.0138 10.6671 55.5788 20.2259 55.5788 32.0004C55.5788 43.7749 45.0138 53.3337 31.9999 53.3337C18.986 53.3337 8.42102 43.7749 8.42102 32.0004C8.42102 20.2259 18.986 10.6671 31.9999 10.6671ZM31.9999 21.3337C38.506 21.3337 43.7894 26.1124 43.7894 32.0004C43.7894 37.8869 38.506 42.6671 31.9999 42.6671C25.4938 42.6671 20.2105 37.8869 20.2105 32.0004C20.2105 26.1124 25.4921 21.3337 31.9999 21.3337Z" fill="white"/>
<path fill-rule="evenodd" clip-rule="evenodd" d="M63.1325 15.5509C64.0015 16.2869 63.9847 17.3962 63.9847 18.2694C63.9847 24.0522 63.9308 40.5002 63.9999 46.2831C64.0066 46.8865 63.786 47.5219 63.4558 48.0004L31.3145 32.0004L63.1325 15.5509Z" fill="#00599C"/>
</g>
<defs>
<clipPath id="clip0_100_133">
<rect width="62" height="64" fill="white" transform="translate(42 57)"/>
</clipPath>
<clipPath id="clip1_100_133">
<rect width="64" height="64" fill="white"/>
</clipPath>
</defs>
</svg>
