<svg width="32" height="35" viewBox="0 0 32 35" fill="none" xmlns="http://www.w3.org/2000/svg">
<g clip-path="url(#clip0_72_77)">
<path fill-rule="evenodd" clip-rule="evenodd" d="M14.9773 0.238552C15.5345 -0.0789477 16.2205 -0.0789477 16.7769 0.238552C19.5301 1.80772 27.8151 6.53105 30.5691 8.10021C31.1263 8.41688 31.4693 9.00355 31.4693 9.63855C31.4693 12.7769 31.4693 22.2227 31.4693 25.361C31.4693 25.996 31.1263 26.5827 30.5691 26.9002C27.8159 28.4694 19.5309 33.1927 16.7769 34.7619C16.2197 35.0794 15.5337 35.0794 14.9773 34.7619C12.2241 33.1927 3.93913 28.4694 1.18512 26.9002C0.62874 26.5827 0.285721 25.9969 0.285721 25.3619C0.285721 22.2235 0.285721 12.7777 0.285721 9.63938C0.285721 9.00438 0.62874 8.41771 1.18594 8.10021C3.93831 6.53105 12.2249 1.80772 14.9773 0.238552Z" fill="#004482"/>
<path fill-rule="evenodd" clip-rule="evenodd" d="M0.53519 26.1702C0.316904 25.8735 0.285721 25.5919 0.285721 25.2127C0.285721 22.0927 0.285721 12.7011 0.285721 9.58023C0.285721 8.94856 0.62792 8.36523 1.18348 8.05023C3.92682 6.49023 12.1839 1.7944 14.9272 0.233568C15.4828 -0.0822652 16.2353 -0.0755986 16.7909 0.240235C19.5342 1.80023 27.7634 6.45606 30.5067 8.01606C30.7283 8.14273 30.8973 8.29523 31.0483 8.49606L0.53519 26.1702Z" fill="#659AD2"/>
<path fill-rule="evenodd" clip-rule="evenodd" d="M15.8775 5.83356C22.2185 5.83356 27.3662 11.0611 27.3662 17.5002C27.3662 23.9394 22.2185 29.1669 15.8775 29.1669C9.53658 29.1669 4.38882 23.9394 4.38882 17.5002C4.38882 11.0611 9.53658 5.83356 15.8775 5.83356ZM15.8775 11.6669C19.0476 11.6669 21.6219 14.2802 21.6219 17.5002C21.6219 20.7194 19.0476 23.3335 15.8775 23.3335C12.7075 23.3335 10.1332 20.7194 10.1332 17.5002C10.1332 14.2802 12.7066 11.6669 15.8775 11.6669Z" fill="white"/>
<path fill-rule="evenodd" clip-rule="evenodd" d="M31.0467 8.50439C31.4701 8.90689 31.4619 9.51356 31.4619 9.99106C31.4619 13.1536 31.4357 22.1486 31.4693 25.311C31.4726 25.641 31.3651 25.9885 31.2043 26.2502L15.5435 17.5002L31.0467 8.50439Z" fill="#00599C"/>
</g>
<defs>
<clipPath id="clip0_72_77">
<rect width="31.1837" height="35" fill="white" transform="translate(0.285721)"/>
</clipPath>
</defs>
</svg>
