<svg width="32" height="32" viewBox="0 0 32 32" fill="none" xmlns="http://www.w3.org/2000/svg">
<g clip-path="url(#clip0_72_69)">
<path d="M9.28102 8.71203L7.2648 6.64203L7.2726 21.5935L7.29696 22.2915C7.3067 22.6215 7.36761 22.9915 7.46506 23.3765L23.4345 29.1565L27.4299 27.3415L27.4333 27.3355L9.28005 8.71203H9.28102Z" fill="#00C4B3"/>
<path d="M7.46555 23.3765H7.46701C7.46555 23.3705 7.46311 23.3635 7.46019 23.3565C7.4636 23.364 7.4636 23.3715 7.46506 23.3765H7.46555ZM27.426 27.3415L23.4306 29.1565L7.4636 23.3765C7.76813 24.5785 8.44394 25.9295 9.16993 26.6665L14.3786 31.985L25.9692 32L27.4212 27.3415H27.426Z" fill="#22D3C5"/>
<path d="M7.31938 6.64252L1.11042 16.265C0.594912 16.83 0.852178 17.996 1.68196 18.855L5.26613 22.563L7.51915 23.378C7.4217 22.994 7.36031 22.628 7.35105 22.293L7.32669 21.595L7.31938 6.64352V6.64252Z" fill="#0075C9"/>
<path d="M23.5661 6.83503C23.1909 6.73753 22.8313 6.67603 22.5073 6.66653L21.7872 6.63953L7.26482 6.64303L27.4329 27.336L29.2045 23.236L23.5671 6.83603L23.5661 6.83503Z" fill="#0075C9"/>
<path d="M23.5476 6.83151C23.5539 6.83401 23.5607 6.83551 23.5661 6.83651V6.83451C23.5597 6.83301 23.5539 6.83301 23.5476 6.83051V6.83151ZM26.7707 8.59051C26.0374 7.83301 24.7389 7.14051 23.5661 6.83651L29.2035 23.235L27.4299 27.335L31.7576 25.916L31.7674 13.74L26.7702 8.59001L26.7707 8.59051Z" fill="#00A8E1"/>
<path d="M22.7758 4.53752L19.1701 0.857518C18.3292 0.009018 17.1929 -0.255982 16.6472 0.272018L7.27065 6.64202L21.793 6.63852L22.5131 6.66552C22.8371 6.67552 23.1972 6.73652 23.5719 6.83402L22.7767 4.53652L22.7758 4.53752Z" fill="#00C4B3"/>
</g>
<defs>
<clipPath id="clip0_72_69">
<rect width="31.1837" height="32" fill="white" transform="translate(0.714279)"/>
</clipPath>
</defs>
</svg>
