<svg width="32" height="32" viewBox="0 0 32 32" fill="none" xmlns="http://www.w3.org/2000/svg">
<g clip-path="url(#clip0_72_59)">
<path d="M19.6909 11.558L16.5696 14.538L13.6735 8.543L15.1722 5.095C15.562 4.395 16.1701 4.403 16.5502 5.095L19.6909 11.558Z" fill="#FFA000"/>
<path d="M13.6735 8.54297L16.5696 14.538L4.905 25.673L13.6735 8.54297Z" fill="#F57F17"/>
<path d="M23.1046 7.00298C23.662 6.45298 24.2389 6.64098 24.386 7.41998L27.4225 25.525L17.358 31.725C17.0072 31.925 16.0717 32.011 16.0717 32.011C16.0717 32.011 15.22 31.907 14.8955 31.711L4.905 25.673L23.1046 7.00298Z" fill="#FFCA28"/>
<path d="M13.6735 8.54298L4.90598 25.673L8.81076 0.63798C8.95498 -0.14202 9.38765 -0.21702 9.77355 0.47098L13.6735 8.54298Z" fill="#FFA000"/>
</g>
<defs>
<clipPath id="clip0_72_59">
<rect width="31.1837" height="32" fill="white" transform="translate(0.571442)"/>
</clipPath>
</defs>
</svg>
