<svg width="32" height="32" viewBox="0 0 32 32" fill="none" xmlns="http://www.w3.org/2000/svg">
<mask id="mask0_72_34" style="mask-type:luminance" maskUnits="userSpaceOnUse" x="2" y="0" width="27" height="32">
<path d="M28.1055 14.766L19.7115 23.3829L28.1055 31.9997H18.5136L10.1166 23.3829L18.5136 14.766H28.1055ZM18.5136 0L2.92343 15.9983L7.72088 20.9214L28.1055 0H18.5136V0Z" fill="white"/>
</mask>
<g mask="url(#mask0_72_34)">
<path d="M10.1196 23.3828L14.914 28.3059L28.1055 14.766H18.5136L10.1196 23.3828Z" fill="#39CEFD"/>
</g>
<mask id="mask1_72_34" style="mask-type:luminance" maskUnits="userSpaceOnUse" x="2" y="0" width="27" height="32">
<path d="M28.1055 14.766L19.7115 23.3829L28.1055 31.9997H18.5136L10.1166 23.3829L18.5136 14.766H28.1055ZM18.5136 0L2.92343 15.9983L7.72088 20.9214L28.1055 0H18.5136V0Z" fill="white"/>
</mask>
<g mask="url(#mask1_72_34)">
<path d="M18.5136 0H28.1055L7.72088 20.9214L2.92343 15.9983L18.5136 0Z" fill="#39CEFD"/>
</g>
<mask id="mask2_72_34" style="mask-type:luminance" maskUnits="userSpaceOnUse" x="2" y="0" width="27" height="32">
<path d="M28.1055 14.766L19.7115 23.3829L28.1055 31.9997H18.5136L10.1166 23.3829L18.5136 14.766H28.1055ZM18.5136 0L2.92343 15.9983L7.72088 20.9214L28.1055 0H18.5136V0Z" fill="white"/>
</mask>
<g mask="url(#mask2_72_34)">
<path d="M14.9141 28.3059L18.5137 31.9967H28.1056L19.7115 23.3829L14.9141 28.3059Z" fill="#03569B"/>
</g>
<mask id="mask3_72_34" style="mask-type:luminance" maskUnits="userSpaceOnUse" x="2" y="0" width="27" height="32">
<path d="M28.1055 14.766L19.7115 23.3829L28.1055 31.9997H18.5136L10.1166 23.3829L18.5136 14.766H28.1055ZM18.5136 0L2.92343 15.9983L7.72088 20.9214L28.1055 0H18.5136V0Z" fill="white"/>
</mask>
<g mask="url(#mask3_72_34)">
<path d="M22.0292 25.7766L19.7115 23.3829L14.9141 28.3059L22.0292 25.7766Z" fill="url(#paint0_linear_72_34)"/>
</g>
<mask id="mask4_72_34" style="mask-type:luminance" maskUnits="userSpaceOnUse" x="2" y="0" width="27" height="32">
<path d="M28.1055 14.766L19.7115 23.3829L28.1055 31.9997H18.5136L10.1166 23.3829L18.5136 14.766H28.1055ZM18.5136 0L2.92343 15.9983L7.72088 20.9214L28.1055 0H18.5136V0Z" fill="white"/>
</mask>
<g mask="url(#mask4_72_34)">
<path d="M10.1191 23.3812L14.9167 18.458L19.7145 23.3812L14.9167 28.3044L10.1191 23.3812Z" fill="#16B9FD"/>
</g>
<path d="M28.1055 14.766L19.7115 23.3829L28.1055 31.9997H18.5136L10.1166 23.3829L18.5136 14.766H28.1055ZM18.5136 0L2.92343 15.9983L7.72088 20.9214L28.1055 0H18.5136Z" fill="url(#paint1_radial_72_34)"/>
<defs>
<linearGradient id="paint0_linear_72_34" x1="16.3141" y1="29.256" x2="19.9795" y2="25.6842" gradientUnits="userSpaceOnUse">
<stop stop-color="#1A237E" stop-opacity="0.4"/>
<stop offset="1" stop-color="#1A237E" stop-opacity="0"/>
</linearGradient>
<radialGradient id="paint1_radial_72_34" cx="0" cy="0" r="1" gradientUnits="userSpaceOnUse" gradientTransform="translate(3.63088 2.18101) scale(38.1491 39.1478)">
<stop stop-color="white" stop-opacity="0.1"/>
<stop offset="1" stop-color="white" stop-opacity="0"/>
</radialGradient>
</defs>
</svg>
