<svg width="29" height="29" viewBox="0 0 29 29" fill="none" xmlns="http://www.w3.org/2000/svg">
<path d="M4.64499 1C3.65501 1 2.755 1.36612 2.08 2.05256C1.36002 2.78474 1 3.69996 1 4.66098C1 5.66774 1.405 6.58301 2.08 7.26945C2.755 7.95589 3.69999 8.36776 4.60001 8.32201C4.60001 8.32201 4.64499 8.32201 4.69003 8.32201C5.59004 8.32201 6.44502 7.95589 7.12002 7.26945C7.79502 6.58301 8.20002 5.66774 8.20002 4.66098C8.245 3.69996 7.84 2.78469 7.16501 2.09825C6.49001 1.36607 5.58999 1 4.64499 1ZM6.49001 6.62881C5.99499 7.13222 5.31999 7.45254 4.60001 7.40679C3.92501 7.40679 3.20503 7.13222 2.71001 6.62881C2.17002 6.1254 1.90002 5.39322 1.90002 4.66103C1.90002 3.92885 2.17002 3.24241 2.71001 2.69325C3.20503 2.18985 3.88003 1.91527 4.64499 1.91527C5.31999 1.91527 5.99499 2.18985 6.49001 2.69325C7.03001 3.24241 7.30001 3.92885 7.30001 4.66103C7.30001 5.39322 7.03001 6.1254 6.49001 6.62881Z" fill="#C5C5C5" stroke="#C5C5C5" stroke-width="0.125"/>
<path d="M6.40002 9.2373H2.75503C2.03505 9.2373 1.45001 9.8322 1.45001 10.6102V26.6271C1.45001 27.3593 2.08003 28 2.80001 28H6.40002C7.12 28 7.75002 27.3593 7.75002 26.6729V10.6102C7.75002 9.87795 7.12 9.2373 6.40002 9.2373ZM6.85 26.6729C6.85 26.9017 6.62498 27.0847 6.40002 27.0847H2.80001C2.57499 27.0847 2.35003 26.8559 2.35003 26.6271V10.6102C2.35003 10.3814 2.53001 10.1526 2.75503 10.1526H6.40002C6.62504 10.1526 6.85 10.3814 6.85 10.6102V26.6729Z" fill="#C5C5C5" stroke="#C5C5C5" stroke-width="0.125"/>
<path d="M21.6999 8.77966H20.7549C18.9999 8.77966 17.335 9.55765 16.255 10.7932V10.1525C16.255 9.69493 15.805 9.23727 15.3549 9.23727H10.855C10.45 9.23727 9.95496 9.60339 9.95496 10.1067V27.1762C9.95496 27.6796 10.45 27.9999 10.855 27.9999H15.805C16.21 27.9999 16.705 27.6796 16.705 27.1762V17.2915C16.705 15.7813 17.785 14.5915 19.18 14.5915C19.9 14.5915 20.575 14.866 21.07 15.3694C21.52 15.7813 21.7 16.422 21.7 17.2457V27.0847C21.7 27.5423 22.15 28 22.6 28H27.1C27.55 28 28 27.5424 28 27.0847V15.2779C27.9999 11.617 25.255 8.77966 21.6999 8.77966ZM27.0999 27.039L27.0549 27.0847H22.6449L22.6 17.2458C22.6 16.1475 22.33 15.3237 21.745 14.7288C21.07 14.0424 20.17 13.6763 19.225 13.6763C17.335 13.722 15.85 15.278 15.85 17.2915V27.0847H10.9V10.1525H15.3549L15.3999 10.1983V13.0813L16.6149 11.8457L16.6599 11.8C17.5599 10.5187 19.1349 9.69493 20.7999 9.69493H21.7449C24.7599 9.69493 27.0999 12.1661 27.0999 15.278V27.039Z" fill="#C5C5C5" stroke="#C5C5C5" stroke-width="0.125"/>
</svg>
