<svg width="33" height="32" viewBox="0 0 33 32" fill="none" xmlns="http://www.w3.org/2000/svg">
<g clip-path="url(#clip0_72_64)">
<path d="M8.92669 4.41554C8.92669 2.2619 9.50231 1.0903 12.6804 0.532404C14.8381 0.15299 17.6046 0.105563 20.1853 0.532404C22.2235 0.869924 23.939 2.39311 23.939 4.41554V11.5209C23.939 13.6048 22.2734 15.3118 20.1853 15.3118H12.6804C10.1334 15.3118 7.98675 17.4906 7.98675 19.9538V23.3628H5.40631C3.22358 23.3628 1.95274 21.7838 1.41888 19.5744C0.698759 16.6061 0.729329 14.8376 1.41888 11.9948C2.01672 9.51486 3.927 8.20636 6.10988 8.20636H16.4342V7.25782H8.92654V4.41539L8.92669 4.41554Z" fill="url(#paint0_linear_72_64)"/>
<path d="M23.9392 27.1539C23.9392 29.3076 22.0762 30.3984 20.1854 30.9424C17.3409 31.7626 15.0579 31.637 12.6806 30.9424C10.6952 30.3622 8.92684 29.1765 8.92684 27.1539V20.0486C8.92684 18.0038 10.6258 16.2577 12.6806 16.2577H20.1854C22.6852 16.2577 24.8791 14.0903 24.8791 11.5208V8.20667H27.6931C29.8786 8.20667 30.9076 9.83577 31.4468 11.9951C32.1975 14.9941 32.2309 17.2369 31.4468 19.5747C30.6878 21.8455 29.8758 23.3631 27.6931 23.3631H16.4343V24.3117H23.9392V27.1539Z" fill="url(#paint1_linear_72_64)"/>
<path d="M10.8036 3.9441C10.8036 3.15745 11.432 2.5213 12.2107 2.5213C12.9864 2.5213 13.6179 3.15729 13.6179 3.9441C13.6179 4.72822 12.9866 5.36406 12.2107 5.36406C11.4323 5.36406 10.8036 4.72807 10.8036 3.9441ZM19.248 27.6255C19.248 26.8414 19.8792 26.2056 20.6551 26.2056C21.4336 26.2056 22.0623 26.8416 22.0623 27.6255C22.0623 28.4122 21.4339 29.0483 20.6551 29.0483C19.8794 29.0483 19.248 28.4123 19.248 27.6255Z" fill="white"/>
</g>
<defs>
<linearGradient id="paint0_linear_72_64" x1="23.9392" y1="9.22271" x2="0.89036" y2="9.04005" gradientUnits="userSpaceOnUse">
<stop stop-color="#366A96"/>
<stop offset="1" stop-color="#3679B0"/>
</linearGradient>
<linearGradient id="paint1_linear_72_64" x1="32.0223" y1="19.8591" x2="-13.6032" y2="19.8591" gradientUnits="userSpaceOnUse">
<stop stop-color="#FFC836"/>
<stop offset="1" stop-color="#FFE873"/>
</linearGradient>
<clipPath id="clip0_72_64">
<rect width="31.1837" height="32" fill="white" transform="translate(0.857147)"/>
</clipPath>
</defs>
</svg>
