<svg width="64" height="64" viewBox="0 0 64 64" fill="none" xmlns="http://www.w3.org/2000/svg">
<g clip-path="url(#clip0_23_923)">
<path d="M63.9999 32.0008C63.9999 34.3268 60.5815 36.2373 60.0858 38.4125C59.5901 40.5877 61.8151 43.8602 60.8365 45.8878C59.842 47.9491 55.9327 48.1881 54.5195 49.9575C53.1062 51.7268 53.7302 55.5992 51.9513 57.0189C50.1819 58.4321 46.5582 56.9627 44.4969 57.9573C42.4693 58.9358 41.3656 62.6943 39.1198 63.2044C36.943 63.6985 34.3251 60.803 31.9991 60.803C29.6731 60.803 27.0536 63.7001 24.8784 63.2044C22.631 62.6943 21.5273 58.9358 19.5013 57.9573C17.44 56.9627 13.8163 58.4321 12.0469 57.0189C10.2679 55.5992 10.9 51.7365 9.4787 49.9575C8.06546 48.1881 4.1562 47.9491 3.16164 45.8878C2.18312 43.8602 4.42248 40.6599 3.91237 38.4125C3.4183 36.2357 -0.00170898 34.3252 -0.00170898 32.0008C-0.00170898 29.6765 3.41669 27.7643 3.91237 25.5891C4.40805 23.4139 2.18312 20.1415 3.16164 18.1139C4.1562 16.0526 8.06546 15.8136 9.4787 14.0442C10.8919 12.2748 10.2679 8.40247 12.0469 6.98282C13.8163 5.56958 17.44 7.03896 19.5013 6.0444C21.5626 5.04984 22.6326 1.3074 24.8784 0.797289C27.0552 0.303217 29.6731 3.19867 31.9991 3.19867C34.3251 3.19867 36.9446 0.301613 39.1198 0.797289C41.295 1.29297 42.4709 5.06588 44.4969 6.0444C46.5582 7.03896 50.1819 5.56958 51.9513 6.98282C53.7302 8.40247 53.0982 12.2652 54.5195 14.0442C55.9407 15.8232 59.842 16.0526 60.8365 18.1139C61.8311 20.1752 59.5757 23.3417 60.0858 25.5891C60.5959 27.8365 63.9999 29.6765 63.9999 32.0008Z" fill="#4E9B00"/>
<path d="M16.9571 40H40.0429C40.5713 40 41 39.5981 41 39.0995V22.9005C41 22.4033 40.5728 22 40.0429 22H16.9571C16.4287 22 16 22.4019 16 22.9005V39.0995C16 39.5967 16.4272 40 16.9571 40Z" fill="white"/>
<path d="M25.6972 42V43C25.6972 43.5521 25.2831 44 24.7726 44H22.9247C22.4142 44 22 44.4463 22 45C22 45.5537 22.4127 46 22.9247 46H34.0753C34.5858 46 35 45.5537 35 45C35 44.4463 34.5873 44 34.0753 44H32.1656C31.6551 44 31.2409 43.5521 31.2409 43V42H25.6958H25.6972Z" fill="white"/>
<path d="M47.0829 18H37.9171C37.4108 18 37 18.4168 37 18.9338V19.8676H39.75C41.2662 19.8676 42.5 21.1239 42.5 22.6676V39.4662C42.5 41.01 41.2662 42.2662 39.75 42.2662H37V45.0662C37 45.5817 37.4094 46 37.9171 46H47.0829C47.5892 46 48 45.5832 48 45.0662V18.9338C48 18.4183 47.5906 18 47.0829 18ZM45.25 41.3324C44.7436 41.3324 44.3329 40.9141 44.3329 40.3985C44.3329 39.883 44.7436 39.4647 45.25 39.4647C45.7564 39.4647 46.1671 39.883 46.1671 40.3985C46.1671 40.9141 45.7564 41.3324 45.25 41.3324ZM45.25 37.5985C44.7436 37.5985 44.3329 37.1803 44.3329 36.6647C44.3329 36.1492 44.7436 35.7309 45.25 35.7309C45.7564 35.7309 46.1671 36.1492 46.1671 36.6647C46.1671 37.1803 45.7564 37.5985 45.25 37.5985Z" fill="white"/>
</g>
<defs>
<clipPath id="clip0_23_923">
<rect width="64" height="64" fill="white"/>
</clipPath>
</defs>
</svg>
